<?xml version="1.0" encoding="UTF-8" standalone="no"?>
<!DOCTYPE svg PUBLIC "-//W3C//DTD SVG 1.1//EN" "http://www.w3.org/Graphics/SVG/1.1/DTD/svg11.dtd">
<svg version="1.1" xmlns="http://www.w3.org/2000/svg" xmlns:xlink="http://www.w3.org/1999/xlink" preserveAspectRatio="xMidYMid meet" viewBox="0 0 640 640" width="50" height="50"><defs><path d="M448.36 12.59L460.59 14.85L472.68 17.6L484.55 20.79L496.26 24.42L507.76 28.5L519.03 33.02L530.12 37.95L540.94 43.33L551.55 49.08L557.93 52.86L552.66 52.75L541.65 52.97L530.75 53.64L519.99 54.75L509.35 56.27L498.82 58.2L488.48 60.54L478.28 63.28L468.23 66.39L458.37 69.88L448.69 73.77L439.2 78L429.89 82.6L420.81 87.53L411.94 92.83L403.3 98.43L394.89 104.36L386.69 110.59L378.8 117.12L371.12 123.94L363.74 131.06L356.62 138.48L349.76 146.12L343.24 154.05L337.01 162.21L331.07 170.63L325.48 179.26L320.21 188.16L315.28 197.25L310.68 206.52L306.42 216.01L302.56 225.73L299.04 235.59L295.92 245.6L293.18 255.83L290.84 266.18L288.91 276.67L287.39 287.31L286.32 298.1L285.65 309.01L285.43 320.02L285.65 331.03L286.32 341.93L287.39 352.69L288.91 363.33L290.84 373.86L293.18 384.2L295.92 394.4L299.04 404.45L302.56 414.31L306.42 423.99L310.68 433.48L315.28 442.79L320.21 451.87L325.48 460.74L331.07 469.41L337.01 477.79L343.24 485.99L349.76 493.88L356.62 501.56L363.74 508.94L371.12 516.06L378.8 522.92L386.69 529.44L394.89 535.67L403.3 541.61L411.94 547.2L420.81 552.47L429.89 557.4L439.2 562L448.69 566.26L458.37 570.12L468.23 573.64L478.28 576.76L488.48 579.5L498.82 581.84L509.35 583.77L519.99 585.29L530.75 586.4L541.65 587.03L552.66 587.25L557.93 587.18L551.55 590.96L540.94 596.71L530.12 602.08L519.03 607.01L507.76 611.54L496.26 615.62L484.55 619.25L472.68 622.44L460.59 625.18L448.36 627.41L435.93 629.19L423.36 630.49L410.68 631.23L397.85 631.49L385.02 631.23L372.31 630.49L359.77 629.19L347.35 627.41L335.12 625.18L323.03 622.44L311.13 619.25L299.45 615.62L287.95 611.54L276.64 607.01L265.59 602.08L254.76 596.71L244.16 590.96L233.81 584.8L223.73 578.28L213.94 571.38L204.41 564.11L195.18 556.47L186.24 548.5L177.64 540.23L169.33 531.59L161.36 522.7L153.76 513.46L146.49 503.93L139.6 494.11L133.07 484.06L126.91 473.71L121.13 463.11L115.79 452.28L110.86 441.19L106.34 429.92L102.26 418.43L98.62 406.71L95.43 394.85L92.69 382.76L90.43 370.52L88.65 358.1L87.39 345.53L86.61 332.85L86.35 320.02L86.61 307.19L87.39 294.47L88.65 281.94L90.43 269.52L92.69 257.28L95.43 245.19L98.62 233.29L102.26 221.61L106.34 210.11L110.86 198.81L115.79 187.76L121.13 176.93L126.91 166.32L133.07 155.98L139.6 145.89L146.49 136.1L153.76 126.57L161.36 117.34L169.33 108.41L177.64 99.8L186.24 91.5L195.18 83.53L204.41 75.92L213.94 68.66L223.73 61.76L233.81 55.23L244.16 49.08L254.76 43.33L265.59 37.95L276.64 33.02L287.95 28.5L299.45 24.42L311.13 20.79L323.03 17.6L335.12 14.85L347.35 12.59L359.77 10.85L372.31 9.55L385.02 8.77L397.85 8.51L410.68 8.77L423.36 9.55L423.36 9.55L435.93 10.85L448.36 12.59Z" id="belqFlKAw"></path></defs><g><g><g><use xlink:href="#belqFlKAw" opacity="1" fill="#777777" fill-opacity="0.58"></use><g><use xlink:href="#belqFlKAw" opacity="1" fill-opacity="0" stroke="#000000" stroke-width="1" stroke-opacity="0"></use></g></g></g></g></svg>