<?xml version="1.0" encoding="UTF-8" standalone="no"?>
<!DOCTYPE svg PUBLIC "-//W3C//DTD SVG 1.1//EN" "http://www.w3.org/Graphics/SVG/1.1/DTD/svg11.dtd">
<svg version="1.1" xmlns="http://www.w3.org/2000/svg" xmlns:xlink="http://www.w3.org/1999/xlink" preserveAspectRatio="xMidYMid meet" viewBox="0 0 640 640" width="50" height="50"><defs><path d="M320.81 539.69C201.41 539.69 104.49 442.78 104.49 323.41C104.49 204.01 201.41 107.09 320.81 107.09C440.17 107.09 537.13 204.01 537.13 323.41C537.13 442.78 440.17 539.69 320.81 539.69Z" id="atPtdfD1V"></path><path d="M86.66 224.16L85.93 223.74L85.25 223.28L87.35 223.32L87.23 223.48L86.66 224.16ZM177.28 107.47L178.65 107.78L179.95 108.2L181.25 108.73L182.47 109.3L183.65 109.99L184.8 110.75L185.87 111.59L186.79 112.39L80.93 219.32L80.9 219.24L80.06 218.17L79.33 216.99L78.68 215.8L78.15 214.54L77.65 213.25L77.27 211.87L77 210.5L76.81 209.08L76.7 207.63L75.02 128.66L75.02 127.21L75.17 125.75L75.4 124.38L75.7 123.01L76.12 121.71L76.62 120.41L77.23 119.19L77.92 118.01L78.68 116.86L79.48 115.79L80.4 114.8L81.39 113.85L82.42 112.97L83.49 112.17L84.67 111.44L85.86 110.79L87.12 110.22L88.42 109.72L89.79 109.34L91.16 109.07L92.58 108.88L94.03 108.81L173 107.09L174.46 107.13L175.91 107.24L177.28 107.47ZM192.89 127.21L194.57 205.08L194.57 205.08L192.89 127.21Z" id="eIWtzjtFR"></path><path d="M249.12 85.79L248.93 84.95L248.78 84.15L250.23 85.71L250.04 85.71L249.12 85.79ZM328.1 6.28L329.4 6.58L330.69 7.04L331.99 7.54L333.21 8.15L334.44 8.87L335.58 9.67L336.69 10.55L337.76 11.54L393.49 67.58L394.44 68.65L395.36 69.76L396.16 70.94L396.85 72.16L397.46 73.38L397.95 74.68L398.37 75.98L398.72 77.31L398.95 78.65L399.1 79.99L399.14 81.21L248.7 78.27L248.7 78.19L248.93 76.86L249.27 75.56L249.69 74.26L250.23 72.96L250.84 71.74L251.56 70.52L252.37 69.37L253.24 68.23L254.24 67.2L310.27 11.47L311.34 10.47L312.45 9.6L313.63 8.8L314.85 8.11L316.07 7.5L317.37 7L318.67 6.58L320.01 6.24L321.34 6.01L322.68 5.86L324.05 5.82L325.39 5.89L326.72 6.01L328.1 6.28Z" id="bYtZHDFe4"></path><path d="M555.95 111.71L557.36 111.94L558.74 112.24L560.07 112.66L561.37 113.16L562.63 113.73L563.81 114.42L564.96 115.14L566.03 115.98L567.06 116.9L568.01 117.85L568.89 118.88L569.69 119.95L570.45 121.1L571.1 122.32L571.68 123.54L572.13 124.84L572.55 126.17L572.82 127.55L573.05 128.92L573.13 130.37L573.13 131.82L569.92 210.76L569.81 212.22L569.58 213.63L569.27 215L568.85 216.34L568.35 217.64L567.74 218.86L567.1 220.08L566.33 221.22L565.53 222.29L564.61 223.32L563.74 224.16L463.65 111.82L463.72 111.78L464.87 111.06L466.05 110.41L467.31 109.84L468.57 109.34L469.91 108.96L471.28 108.65L472.7 108.46L474.11 108.35L475.56 108.39L554.5 111.59L555.95 111.71ZM458.46 117.24L458.92 116.56L459.41 115.91L459.26 118.01L459.11 117.85L458.46 117.24Z" id="a7mzDCmkYs"></path><path d="M544.08 438.61L544.76 439.8L545.34 441.06L545.87 442.36L546.29 443.69L546.6 445.07L546.83 446.48L546.94 447.93L550.64 526.83L550.68 528.28L550.57 529.73L550.38 531.11L550.11 532.48L549.73 533.82L549.23 535.11L548.66 536.34L548.01 537.56L547.28 538.7L546.48 539.81L545.6 540.84L544.65 541.79L543.66 542.71L542.59 543.55L541.44 544.31L540.26 544.96L539 545.57L537.7 546.07L536.37 546.49L534.99 546.83L533.58 547.06L532.13 547.18L453.23 550.88L451.78 550.88L450.36 550.8L448.95 550.61L447.58 550.31L446.24 549.92L444.94 549.47L443.72 548.89L442.5 548.25L441.36 547.52L440.25 546.72L439.33 545.92L542.44 436.36L542.47 436.4L543.31 437.47L544.08 438.61ZM429.18 453.43L429.18 453.43L432.65 526.83L429.18 453.43ZM535.91 432.51L536.06 432.35L536.6 431.63L537.32 432.05L538.01 432.47L535.91 432.51Z" id="j48JyVSwQ"></path><path d="M395.51 560.92L395.13 562.25L394.63 563.55L394.06 564.77L393.37 566L392.61 567.18L391.73 568.32L390.78 569.43L336.15 626.54L335.12 627.53L334.02 628.45L332.87 629.29L331.69 630.01L330.47 630.66L329.21 631.19L327.91 631.65L326.57 632L325.24 632.26L323.9 632.45L322.56 632.53L321.19 632.49L319.85 632.42L318.48 632.19L317.18 631.88L315.85 631.5L314.55 631L313.29 630.43L312.07 629.74L310.88 628.98L309.78 628.1L308.67 627.15L251.56 572.52L250.57 571.49L249.65 570.39L248.82 569.24L248.09 568.06L247.44 566.84L246.91 565.58L246.45 564.28L246.1 562.94L245.84 561.64L245.65 560.27L245.57 559.05L396.05 558.21L396.01 558.25L395.82 559.62L395.51 560.92ZM394.29 550.76L395.43 550.73L395.63 551.53L395.78 552.29L394.29 550.76Z" id="b21HpU6b"></path><path d="M198.12 547.75L196.94 548.44L195.72 549.05L194.46 549.54L193.12 549.96L191.79 550.31L190.37 550.54L188.96 550.69L187.51 550.73L108.49 549.47L107.04 549.39L105.63 549.24L104.26 548.93L102.88 548.59L101.58 548.09L100.32 547.56L99.14 546.91L97.96 546.18L96.85 545.38L95.82 544.5L94.83 543.59L93.95 542.56L93.11 541.49L92.35 540.38L91.66 539.2L91.05 537.98L90.51 536.68L90.09 535.38L89.75 534.01L89.52 532.63L89.41 531.18L89.37 529.73L90.59 450.75L90.67 449.3L90.86 447.89L91.13 446.48L91.51 445.14L91.97 443.84L92.54 442.58L93.19 441.36L93.87 440.22L94.68 439.11L95.55 438.08L96.39 437.16L199.31 546.95L199.27 546.99L198.12 547.75ZM203.92 542.1L203.47 542.79L203.58 540.65L203.7 540.8L204.38 541.41L203.92 542.1ZM112.31 431.63L189.34 432.85L189.34 432.85L112.31 431.63Z" id="cj3qxTSyp"></path><path d="M80.48 398.42L79.14 398.15L77.8 397.77L76.51 397.31L75.25 396.78L73.99 396.13L72.8 395.4L71.66 394.56L70.51 393.61L11.99 340.55L10.96 339.56L10.01 338.49L9.13 337.34L8.37 336.2L7.72 334.98L7.15 333.72L6.65 332.46L6.23 331.12L5.96 329.82L5.73 328.45L5.62 327.11L5.62 325.74L5.7 324.4L5.85 323.07L6.12 321.73L6.46 320.4L6.92 319.1L7.49 317.8L8.14 316.58L8.86 315.36L9.7 314.21L10.62 313.1L63.68 254.55L64.71 253.52L65.78 252.56L66.89 251.72L68.07 250.96L69.29 250.27L70.55 249.7L71.81 249.2L73.11 248.82L74.44 248.52L75.78 248.33L77 248.21L81.89 398.57L81.81 398.57L80.48 398.42ZM88.57 398L87.77 398.19L89.25 396.66L89.25 396.85L89.37 397.77L88.57 398Z" id="dnSEvIcIU"></path><path d="M569.04 248.86L570.34 249.32L571.6 249.85L572.86 250.5L574.04 251.23L575.19 252.03L576.29 252.94L577.33 253.98L632.06 310.93L633.06 312.04L633.9 313.14L634.7 314.33L635.39 315.55L635.96 316.81L636.45 318.1L636.84 319.4L637.14 320.74L637.37 322.07L637.48 323.45L637.48 324.78L637.41 326.16L637.26 327.5L636.99 328.83L636.65 330.17L636.19 331.43L635.65 332.72L635 333.95L634.28 335.13L633.44 336.27L632.52 337.38L631.53 338.41L574.54 393.15L573.47 394.14L572.32 394.98L571.14 395.79L569.92 396.47L568.66 397.05L567.4 397.54L566.06 397.92L564.73 398.23L563.39 398.46L562.06 398.57L560.84 398.57L566.33 248.25L566.41 248.25L567.74 248.52L569.04 248.86ZM494.99 338.41L547.05 392.62L547.05 392.62L494.99 338.41ZM559.65 248.33L560.45 248.21L558.85 249.66L558.85 248.52L559.65 248.33Z" id="bwKo9lmvY"></path></defs><g><g><g><use xlink:href="#atPtdfD1V" opacity="1" fill="#777777" fill-opacity="0.62"></use><g><use xlink:href="#atPtdfD1V" opacity="1" fill-opacity="0" stroke="#000000" stroke-width="1" stroke-opacity="0"></use></g></g><g><use xlink:href="#eIWtzjtFR" opacity="1" fill="#777777" fill-opacity="0.62"></use><g><use xlink:href="#eIWtzjtFR" opacity="1" fill-opacity="0" stroke="#000000" stroke-width="1" stroke-opacity="0"></use></g></g><g><use xlink:href="#bYtZHDFe4" opacity="1" fill="#777777" fill-opacity="0.62"></use><g><use xlink:href="#bYtZHDFe4" opacity="1" fill-opacity="0" stroke="#000000" stroke-width="1" stroke-opacity="0"></use></g></g><g><use xlink:href="#a7mzDCmkYs" opacity="1" fill="#777777" fill-opacity="0.62"></use><g><use xlink:href="#a7mzDCmkYs" opacity="1" fill-opacity="0" stroke="#000000" stroke-width="1" stroke-opacity="0"></use></g></g><g><use xlink:href="#j48JyVSwQ" opacity="1" fill="#777777" fill-opacity="0.62"></use><g><use xlink:href="#j48JyVSwQ" opacity="1" fill-opacity="0" stroke="#000000" stroke-width="1" stroke-opacity="0"></use></g></g><g><use xlink:href="#b21HpU6b" opacity="1" fill="#777777" fill-opacity="0.62"></use><g><use xlink:href="#b21HpU6b" opacity="1" fill-opacity="0" stroke="#000000" stroke-width="1" stroke-opacity="0"></use></g></g><g><use xlink:href="#cj3qxTSyp" opacity="1" fill="#777777" fill-opacity="0.62"></use><g><use xlink:href="#cj3qxTSyp" opacity="1" fill-opacity="0" stroke="#000000" stroke-width="1" stroke-opacity="0"></use></g></g><g><use xlink:href="#dnSEvIcIU" opacity="1" fill="#777777" fill-opacity="0.62"></use><g><use xlink:href="#dnSEvIcIU" opacity="1" fill-opacity="0" stroke="#000000" stroke-width="1" stroke-opacity="0"></use></g></g><g><use xlink:href="#bwKo9lmvY" opacity="1" fill="#777777" fill-opacity="0.62"></use><g><use xlink:href="#bwKo9lmvY" opacity="1" fill-opacity="0" stroke="#000000" stroke-width="1" stroke-opacity="0"></use></g></g></g></g></svg>